<svg xmlns="http://www.w3.org/2000/svg" viewBox="0 0 1024 1024">
  <defs>
    <filter id="shadow" x="-20%" y="-20%" width="140%" height="150%">
      <feDropShadow dx="0" dy="26" stdDeviation="24" flood-color="#a94028" flood-opacity=".28"/>
    </filter>
  </defs>

  <rect width="1024" height="1024" fill="#ff8c66"/>
  <circle cx="92" cy="112" r="150" fill="#fff4e8" opacity=".13"/>
  <circle cx="946" cy="906" r="230" fill="#d95832" opacity=".18"/>

  <g filter="url(#shadow)">
    <rect x="142" y="142" width="740" height="740" rx="190" fill="#fff8f0"/>
    <rect x="162" y="162" width="700" height="700" rx="172" fill="none" stroke="#ffd8b8" stroke-width="18"/>
  </g>

  <g stroke="#ffffff" stroke-width="12">
    <rect x="224" y="224" width="266" height="266" rx="82" fill="#ff7c86"/>
    <rect x="534" y="224" width="266" height="266" rx="82" fill="#5fd0a0"/>
    <rect x="224" y="534" width="266" height="266" rx="82" fill="#ffcf5c"/>
    <rect x="534" y="534" width="266" height="266" rx="82" fill="#6bb6f2"/>
  </g>

  <g fill="#ffffff">
    <path d="M357 419c-18-17-70-59-70-103 0-34 25-58 57-58 18 0 35 9 46 23 11-14 28-23 46-23 32 0 57 24 57 58 0 44-52 86-70 103l-33 30z"/>
    <path d="M357 576l24 62 66 4-51 42 17 65-56-36-56 36 17-65-51-42 66-4z"/>
  </g>
  <circle cx="667" cy="357" r="78" fill="#ffffff"/>
  <circle cx="667" cy="357" r="42" fill="#5fd0a0"/>
  <path d="M667 568l89 89-89 89-89-89z" fill="#ffffff"/>
  <path d="M667 609l48 48-48 48-48-48z" fill="#6bb6f2"/>
</svg>
